# xmcd CD database file
#
# Track frame offsets:
#	150
#	11093
#	23856
#	41654
#	55552
#	70500
#	86126
#	98683
#	112216
#	129681
#	144320
#	163433
#	184659
#
# Disc length: 2705 seconds
#
# Revision: 0
# Processed by: cddbd v1.5.2PL0 Copyright (c) Steve Scherf et al.
# Submitted via: CDex 1.81
#
DISCID=b10a8f0d
DTITLE=Kathy Chiavola - Somehow
DYEAR=2007
DGENRE=Country
TTITLE0=Making New Memories
TTITLE1=Azalea Waltz
TTITLE2=Missin You
TTITLE3=I Wouldnt Be Here
TTITLE4=Ballad Of Possum and Pearl
TTITLE5=Wanna Be Near You
TTITLE6=Edgar
TTITLE7=What'll I Do With This Love
TTITLE8=You Blew It Baby
TTITLE9=Girl With A Mission
TTITLE10=I'll Rest My Case
TTITLE11=Italy Calling
TTITLE12=Somehow
EXTD=YEAR: 2007
EXTT0=
EXTT1=
EXTT2=
EXTT3=
EXTT4=
EXTT5=
EXTT6=
EXTT7=
EXTT8=
EXTT9=
EXTT10=
EXTT11=
EXTT12=
PLAYORDER=
